<svg width="808" height="228" viewBox="0 0 808 228" fill="none" xmlns="http://www.w3.org/2000/svg">
<path d="M0 50C0 22.3858 22.3858 0 50 0H178C205.614 0 228 22.3858 228 50V178C228 205.614 205.614 228 178 228H50C22.3858 228 0 205.614 0 178V50Z" fill="#FEDA03"/>
<path fill-rule="evenodd" clip-rule="evenodd" d="M171.756 95.4469C171.756 106.384 165.366 111.824 158.185 113.714C166.78 116.29 173 123.334 173 134.5V155H140.202V135.531C140.202 129.575 136.696 127.17 130.702 127.17H91.7976V155H59V73H136.923C156.488 73 171.756 77.2374 171.756 95.4469ZM91.8122 95.9099H136.151V95.9135C136.217 95.9111 136.284 95.9099 136.35 95.9099C139.399 95.9099 141.871 98.4127 141.871 101.5C141.871 104.587 139.399 107.09 136.35 107.09C136.284 107.09 136.217 107.089 136.151 107.087V107.09H91.8122V95.9099Z" fill="black"/>
<path fill-rule="evenodd" clip-rule="evenodd" d="M681.036 131.334C681.036 155.257 667.17 171.724 643.643 171.724C633.984 171.724 625.103 167.685 621.208 161.471V170.481H601.576V60.4958H621.208V100.886C625.726 94.9828 634.139 90.9438 643.955 90.9438C667.17 90.9438 681.036 107.411 681.036 131.334ZM619.961 131.334C619.961 145.47 628.219 154.791 640.839 154.791C653.303 154.791 661.561 145.47 661.561 131.334C661.561 117.197 653.303 107.877 640.839 107.877C628.219 107.877 619.961 117.197 619.961 131.334Z" fill="black"/>
<path fill-rule="evenodd" clip-rule="evenodd" d="M403.119 170.481L379.14 121.858C389.891 116.576 396.278 106.168 396.278 93.8954C396.278 74.3217 382.412 61.7385 361.067 61.7385H309L309.156 170.481H330.345V125.897H357.483L378.503 170.481H403.119ZM330.345 79.9141H357.795C368.701 79.9141 374.933 85.196 374.933 93.8954C374.933 102.595 368.701 107.721 357.795 107.721H330.345V79.9141Z" fill="black"/>
<path fill-rule="evenodd" clip-rule="evenodd" d="M466.597 92.1866H486.228V170.481H466.597V161.471C462.702 167.685 453.977 171.724 444.161 171.724C420.635 171.724 406.768 155.257 406.768 131.334C406.768 107.411 420.635 90.9438 443.849 90.9438C453.665 90.9438 462.078 94.9828 466.597 100.886V92.1866ZM426.244 131.334C426.244 145.47 434.501 154.791 446.965 154.791C459.586 154.791 467.843 145.47 467.843 131.334C467.843 117.197 459.586 107.877 446.965 107.877C434.501 107.877 426.244 117.197 426.244 131.334Z" fill="black"/>
<path d="M554.633 92.1866L553.387 111.139C550.583 109.896 546.843 109.275 543.416 109.275C532.354 109.275 522.382 118.44 522.382 141.742V170.481H502.751V92.1866H522.382V106.478C526.277 97.6237 536.56 90.9438 546.064 90.9438C548.869 90.9438 552.296 91.4098 554.633 92.1866Z" fill="black"/>
<path d="M585.119 170.481H565.488V92.1866H585.119V170.481Z" fill="black"/>
<path d="M695.352 170.481H714.984V60.4958H695.352V170.481Z" fill="black"/>
<path fill-rule="evenodd" clip-rule="evenodd" d="M807.447 128.693C807.447 110.517 794.516 90.9438 768.029 90.9438C742.01 90.9438 729.234 110.984 729.234 131.334C729.234 151.684 743.101 171.724 769.12 171.724C787.505 171.724 801.215 163.025 805.578 148.267L787.193 143.296C785.168 150.908 778.624 155.257 769.432 155.257C758.214 155.257 750.579 148.267 748.865 136.46H807.136C807.292 134.907 807.447 131.489 807.447 128.693ZM749.333 122.168C751.514 111.605 758.369 105.857 768.029 105.857C779.403 105.857 785.479 112.848 786.414 122.168H749.333Z" fill="black"/>
<path d="M572.5 57.0002C567.635 57.0002 563.691 60.8634 563.691 65.6288V71.3716C563.691 76.1371 567.635 80.0002 572.5 80.0002H578.191C583.056 80.0002 587 76.1371 587 71.3716V65.6288C587 60.8634 583.056 57.0002 578.191 57.0002H572.5Z" fill="black"/>
</svg>
